<?xml version="1.0" encoding="UTF-8"?><svg id="Capa_2" xmlns="http://www.w3.org/2000/svg" xmlns:xlink="http://www.w3.org/1999/xlink" viewBox="0 0 1052.59 500"><defs><style>.cls-1{fill:none;}.cls-2{fill:url(#New_Gradient_Swatch_3-2);}.cls-3{fill:url(#linear-gradient-2);}.cls-4{fill:url(#linear-gradient);}.cls-5{fill:#4d4d4c;}.cls-6{fill:#fff;}.cls-7{opacity:.75;}.cls-8{opacity:.4;}.cls-9{opacity:.2;}.cls-10{opacity:.3;}.cls-11{fill:url(#New_Gradient_Swatch_3);}.cls-12{fill:#d6e021;}.cls-13{clip-path:url(#clippath);}</style><clipPath id="clippath"><path class="cls-1" d="M32.39,0h987.86c17.85,0,32.34,14.49,32.34,32.34v435.32c0,17.85-14.49,32.34-32.34,32.34H32.39C14.54,500,.05,485.51.05,467.66V32.34C.05,14.49,14.54,0,32.39,0Z"/></clipPath><linearGradient id="linear-gradient" x1="-4219.65" y1="-119.46" x2="-4228.15" y2="-22.35" gradientTransform="translate(-3182.4581 178.956) rotate(-180)" gradientUnits="userSpaceOnUse"><stop offset="0" stop-color="#000"/><stop offset=".07" stop-color="#161616"/><stop offset=".16" stop-color="#000"/><stop offset=".71" stop-color="#6b6a6a"/><stop offset=".77" stop-color="#e2e1e1"/><stop offset=".81" stop-color="#7a7878"/><stop offset=".85" stop-color="#3d3e3d"/><stop offset=".95" stop-color="#020202"/><stop offset="1" stop-color="#000"/></linearGradient><linearGradient id="New_Gradient_Swatch_3" x1="-4217.67" y1="-119.3" x2="-4226.14" y2="-22.51" gradientTransform="translate(-3180.4581 178.956) rotate(-180)" gradientUnits="userSpaceOnUse"><stop offset="0" stop-color="#000"/><stop offset=".07" stop-color="#4a4949"/><stop offset=".2" stop-color="#010101"/><stop offset=".78" stop-color="#fff"/><stop offset=".85" stop-color="#a7a8a9"/><stop offset=".95" stop-color="#2e2e2f"/><stop offset="1" stop-color="#000"/></linearGradient><linearGradient id="linear-gradient-2" x1="-3189.22" x2="-3197.72" xlink:href="#linear-gradient"/><linearGradient id="New_Gradient_Swatch_3-2" x1="-3187.24" x2="-3195.7" xlink:href="#New_Gradient_Swatch_3"/></defs><g id="FLAP_MASTER_copy_2"><g class="cls-13"><rect id="FLAP_INF" class="cls-5" y="254" width="1052.54" height="246"/><rect id="FLAP_BLACK" y="0" width="1052.54" height="246"/><g id="FLAPSAPP"><path class="cls-6" d="M90.4,89.82h91.76v29.95h-56.09v96.26h52.63v30.3h-52.63v148.2h-35.66V89.82Z"/><path class="cls-6" d="M219.72,89.82h35.84v275.1h56.27v29.61h-92.1V89.82Z"/><path class="cls-12" d="M375.71,89.82h43.11l50.38,304.71h-33.76l-8.66-58.17h-55.23l-7.96,58.17h-34.11l46.23-304.71ZM375.54,307.27h46.75l-24.06-161.01h-.52l-22.16,161.01Z"/><path class="cls-12" d="M505.56,89.82h61.29c27.01,0,43.97,11.2,50.9,33.59,4.38,14.08,6.58,30.53,6.58,49.34s-.52,32.95-1.56,42.42c-2.31,20.78-7.79,35.92-16.45,45.45-8.66,9.52-21.81,14.28-39.47,14.28h-25.45v119.63h-35.84V89.82ZM588.49,175.87c0-20.89-1.64-35.72-4.93-44.49-3.29-8.77-9.78-13.16-19.48-13.16h-22.68v126.9h21.81c10.16,0,16.91-4.44,20.26-13.33,3.35-8.89,5.02-25.56,5.02-50.03v-5.89Z"/><path class="cls-12" d="M659.64,89.82h61.29c27.01,0,43.97,11.2,50.9,33.59,4.38,14.08,6.58,30.53,6.58,49.34s-.52,32.95-1.56,42.42c-2.31,20.78-7.79,35.92-16.45,45.45-8.66,9.52-21.81,14.28-39.47,14.28h-25.45v119.63h-35.84V89.82ZM742.57,175.87c0-20.89-1.64-35.72-4.93-44.49-3.29-8.77-9.78-13.16-19.48-13.16h-22.68v126.9h21.81c10.16,0,16.91-4.44,20.26-13.33,3.35-8.89,5.02-25.56,5.02-50.03v-5.89Z"/><path class="cls-6" d="M816.5,89.82h35.84v304.71h-35.84V89.82Z"/><path class="cls-6" d="M884.89,89.82h100.59v29.78h-31.34v274.93h-35.66V119.6h-33.59v-29.78Z"/><rect id="FLAP_SUP" class="cls-8" y="0" width="1052.54" height="246"/></g><g id="RAYAS"><rect class="cls-7" y="495.85" width="1052.54" height="4.15"/><rect class="cls-7" y="487.89" width="1052.54" height="4.15"/><rect class="cls-7" y="479.94" width="1052.54" height="4.15"/><rect class="cls-7" y="472" width="1052.54" height="4.14"/></g><rect id="Low_Line" class="cls-9" x=".05" y="254.55" width="1052.54" height="4"/><rect id="Sup_Line" class="cls-10" x=".05" y="241.46" width="1052.54" height="4"/><rect id="CENTRAL_LINE" x=".05" y="245.5" width="1052.54" height="9"/></g><text/></g><g id="WHEELS_copy"><g id="Wheel_Right"><rect x="1030.43" y="196" width="22" height="108"/><rect id="Left_Wheel_2" class="cls-4" x="1033.43" y="196" width="16" height="108"/><rect id="Left_Wheel_1" class="cls-11" x="1035.43" y="196" width="12" height="108"/><rect id="Sup_Line_Small" class="cls-10" x="1030.43" y="192" width="22" height="4"/></g><g id="Wheel_Left"><rect y="196" width="22" height="108"/><rect id="Left_Wheel_2-2" class="cls-3" x="3" y="196" width="16" height="108"/><rect id="Left_Wheel_1-2" class="cls-2" x="5" y="196" width="12" height="108"/><rect id="Sup_Line_Small-2" class="cls-10" y="192" width="22" height="4"/></g></g></svg>