<svg xmlns="http://www.w3.org/2000/svg" viewBox="0 0 1041 224" width="1041" height="224">
<defs>
<linearGradient id="base" x1="0" y1="0" x2="0" y2="1">
  <stop offset="0" stop-color="rgb(23,23,27)"/><stop offset="0.47" stop-color="rgb(23,23,27)"/>
  <stop offset="0.47" stop-color="rgb(5,5,6)"/><stop offset="0.53" stop-color="rgb(5,5,6)"/>
  <stop offset="0.53" stop-color="rgb(26,26,31)"/><stop offset="1" stop-color="rgb(26,26,31)"/>
</linearGradient>
<linearGradient id="topshadow" x1="0" y1="0" x2="0" y2="1">
  <stop offset="0" stop-color="#000" stop-opacity="0.74"/>
  <stop offset="0.66" stop-color="#000" stop-opacity="0.44"/>
  <stop offset="1" stop-color="#000" stop-opacity="0.14"/>
</linearGradient>
<clipPath id="c0"><rect x="12.00" y="12.0" width="140.0" height="200.0" rx="12.60"/></clipPath>
<clipPath id="c1"><rect x="158.16" y="12.0" width="140.0" height="200.0" rx="12.60"/></clipPath>
<clipPath id="c2"><rect x="304.32" y="12.0" width="140.0" height="200.0" rx="12.60"/></clipPath>
<clipPath id="c3"><rect x="450.48" y="12.0" width="140.0" height="200.0" rx="12.60"/></clipPath>
<clipPath id="c4"><rect x="596.64" y="12.0" width="140.0" height="200.0" rx="12.60"/></clipPath>
<clipPath id="c5"><rect x="742.80" y="12.0" width="140.0" height="200.0" rx="12.60"/></clipPath>
<clipPath id="c6"><rect x="888.96" y="12.0" width="140.0" height="200.0" rx="12.60"/></clipPath>
</defs>
<g clip-path="url(#c0)">
  <rect x="12.00" y="12.0" width="140.0" height="200.0" fill="url(#base)"/>
  <text x="0" y="0" transform="translate(82.00,158.46) scale(0.74,1)" text-anchor="middle" font-family="'Helvetica Neue',Arial,'Liberation Sans',sans-serif" font-weight="500" font-size="132.0" fill="#FFFFFF">F</text>
  <rect x="12.00" y="12.0" width="140.0" height="140.00" fill="url(#topshadow)"/>
  <rect x="12.00" y="12.0" width="140.0" height="2.4" fill="#FFFFFF" opacity="0.12"/>
  <rect x="12.00" y="109.00" width="140.0" height="6.00" fill="#000000" opacity="0.92"/>
  <rect x="12.00" y="115.00" width="140.0" height="1.2" fill="#FFFFFF" opacity="0.045"/>
</g>
<g clip-path="url(#c1)">
  <rect x="158.16" y="12.0" width="140.0" height="200.0" fill="url(#base)"/>
  <text x="0" y="0" transform="translate(228.16,158.46) scale(0.74,1)" text-anchor="middle" font-family="'Helvetica Neue',Arial,'Liberation Sans',sans-serif" font-weight="500" font-size="132.0" fill="#FFFFFF">L</text>
  <rect x="158.16" y="12.0" width="140.0" height="140.00" fill="url(#topshadow)"/>
  <rect x="158.16" y="12.0" width="140.0" height="2.4" fill="#FFFFFF" opacity="0.12"/>
  <rect x="158.16" y="109.00" width="140.0" height="6.00" fill="#000000" opacity="0.92"/>
  <rect x="158.16" y="115.00" width="140.0" height="1.2" fill="#FFFFFF" opacity="0.045"/>
</g>
<g clip-path="url(#c2)">
  <rect x="304.32" y="12.0" width="140.0" height="200.0" fill="url(#base)"/>
  <text x="0" y="0" transform="translate(374.32,158.46) scale(0.74,1)" text-anchor="middle" font-family="'Helvetica Neue',Arial,'Liberation Sans',sans-serif" font-weight="500" font-size="132.0" fill="#D7E021">A</text>
  <rect x="304.32" y="12.0" width="140.0" height="140.00" fill="url(#topshadow)"/>
  <rect x="304.32" y="12.0" width="140.0" height="2.4" fill="#FFFFFF" opacity="0.12"/>
  <rect x="304.32" y="109.00" width="140.0" height="6.00" fill="#000000" opacity="0.92"/>
  <rect x="304.32" y="115.00" width="140.0" height="1.2" fill="#FFFFFF" opacity="0.045"/>
</g>
<g clip-path="url(#c3)">
  <rect x="450.48" y="12.0" width="140.0" height="200.0" fill="url(#base)"/>
  <text x="0" y="0" transform="translate(520.48,158.46) scale(0.74,1)" text-anchor="middle" font-family="'Helvetica Neue',Arial,'Liberation Sans',sans-serif" font-weight="500" font-size="132.0" fill="#D7E021">P</text>
  <rect x="450.48" y="12.0" width="140.0" height="140.00" fill="url(#topshadow)"/>
  <rect x="450.48" y="12.0" width="140.0" height="2.4" fill="#FFFFFF" opacity="0.12"/>
  <rect x="450.48" y="109.00" width="140.0" height="6.00" fill="#000000" opacity="0.92"/>
  <rect x="450.48" y="115.00" width="140.0" height="1.2" fill="#FFFFFF" opacity="0.045"/>
</g>
<g clip-path="url(#c4)">
  <rect x="596.64" y="12.0" width="140.0" height="200.0" fill="url(#base)"/>
  <text x="0" y="0" transform="translate(666.64,158.46) scale(0.74,1)" text-anchor="middle" font-family="'Helvetica Neue',Arial,'Liberation Sans',sans-serif" font-weight="500" font-size="132.0" fill="#D7E021">P</text>
  <rect x="596.64" y="12.0" width="140.0" height="140.00" fill="url(#topshadow)"/>
  <rect x="596.64" y="12.0" width="140.0" height="2.4" fill="#FFFFFF" opacity="0.12"/>
  <rect x="596.64" y="109.00" width="140.0" height="6.00" fill="#000000" opacity="0.92"/>
  <rect x="596.64" y="115.00" width="140.0" height="1.2" fill="#FFFFFF" opacity="0.045"/>
</g>
<g clip-path="url(#c5)">
  <rect x="742.80" y="12.0" width="140.0" height="200.0" fill="url(#base)"/>
  <text x="0" y="0" transform="translate(812.80,158.46) scale(0.74,1)" text-anchor="middle" font-family="'Helvetica Neue',Arial,'Liberation Sans',sans-serif" font-weight="500" font-size="132.0" fill="#FFFFFF">I</text>
  <rect x="742.80" y="12.0" width="140.0" height="140.00" fill="url(#topshadow)"/>
  <rect x="742.80" y="12.0" width="140.0" height="2.4" fill="#FFFFFF" opacity="0.12"/>
  <rect x="742.80" y="109.00" width="140.0" height="6.00" fill="#000000" opacity="0.92"/>
  <rect x="742.80" y="115.00" width="140.0" height="1.2" fill="#FFFFFF" opacity="0.045"/>
</g>
<g clip-path="url(#c6)">
  <rect x="888.96" y="12.0" width="140.0" height="200.0" fill="url(#base)"/>
  <text x="0" y="0" transform="translate(958.96,158.46) scale(0.74,1)" text-anchor="middle" font-family="'Helvetica Neue',Arial,'Liberation Sans',sans-serif" font-weight="500" font-size="132.0" fill="#FFFFFF">T</text>
  <rect x="888.96" y="12.0" width="140.0" height="140.00" fill="url(#topshadow)"/>
  <rect x="888.96" y="12.0" width="140.0" height="2.4" fill="#FFFFFF" opacity="0.12"/>
  <rect x="888.96" y="109.00" width="140.0" height="6.00" fill="#000000" opacity="0.92"/>
  <rect x="888.96" y="115.00" width="140.0" height="1.2" fill="#FFFFFF" opacity="0.045"/>
</g>
</svg>